<svg width="34" height="24" viewBox="0 0 34 24" xmlns="http://www.w3.org/2000/svg">
    <g fill="none" fill-rule="evenodd">
        <rect fill="#2F2F2F" width="34" height="24" rx="4"/>
        <g fill="#FFF" fill-rule="nonzero">
            <path d="M16.35 13.698c-.105 1.038-.52 1.848-1.24 2.43-.723.581-1.683.872-2.88.872-.838 0-1.575-.184-2.213-.551a3.721 3.721 0 0 1-1.476-1.568c-.346-.677-.527-1.464-.541-2.36v-.909c0-.918.176-1.727.527-2.426.351-.7.855-1.239 1.512-1.618S11.455 7 12.316 7c1.16 0 2.093.292 2.8.876.708.583 1.119 1.408 1.234 2.473h-1.818c-.087-.7-.307-1.204-.66-1.514-.354-.31-.873-.465-1.556-.465-.794 0-1.404.269-1.83.806-.425.537-.643 1.324-.653 2.363v.862c0 1.052.203 1.854.61 2.406.407.553 1.002.83 1.786.83.717 0 1.256-.15 1.617-.448.36-.3.59-.796.686-1.491h1.818zM26 13.698c-.106 1.038-.52 1.848-1.241 2.43-.722.581-1.682.872-2.88.872-.837 0-1.575-.184-2.212-.551a3.721 3.721 0 0 1-1.476-1.568c-.347-.677-.527-1.464-.541-2.36v-.909c0-.918.175-1.727.526-2.426.352-.7.856-1.239 1.512-1.618C20.345 7.19 21.104 7 21.966 7c1.16 0 2.093.292 2.8.876.707.583 1.119 1.408 1.234 2.473h-1.819c-.086-.7-.307-1.204-.66-1.514-.354-.31-.872-.465-1.555-.465-.794 0-1.404.269-1.83.806-.426.537-.644 1.324-.653 2.363v.862c0 1.052.203 1.854.61 2.406.406.553 1.002.83 1.786.83.717 0 1.256-.15 1.617-.448.36-.3.589-.796.685-1.491H26z"/>
        </g>
    </g>
</svg>
