<svg width="72" height="72" viewBox="0 0 72 72" xmlns="http://www.w3.org/2000/svg" xmlns:xlink="http://www.w3.org/1999/xlink">
    <defs>
        <path id="xfx147dnaa" d="M0 .274h71.72v71.16H0z"/>
        <path id="740p16uipc" d="M0 .274h71.72v71.16H0z"/>
    </defs>
    <g fill="none" fill-rule="evenodd">
        <g transform="translate(0 .293)">
            <mask id="uzinxeoljb" fill="#fff">
                <use xlink:href="#xfx147dnaa"/>
            </mask>
            <path d="M63.637 71.433H8.084c-4.462 0-8.084-3.59-8.084-8.02V8.298C0 3.866 3.622.273 8.084.273h55.553c4.469 0 8.084 3.593 8.084 8.026v55.113c0 4.431-3.615 8.021-8.084 8.021" fill="#000" mask="url(#uzinxeoljb)"/>
        </g>
        <g transform="translate(0 .293)">
            <mask id="9j4fhkc7ed" fill="#fff">
                <use xlink:href="#740p16uipc"/>
            </mask>
            <path d="M63.637 71.433H8.084c-4.462 0-8.084-3.59-8.084-8.02V8.298C0 3.866 3.622.273 8.084.273h55.553c4.469 0 8.084 3.593 8.084 8.026v55.113c0 4.431-3.615 8.021-8.084 8.021" fill="#000" mask="url(#9j4fhkc7ed)"/>
        </g>
        <path d="M58.814 25.466c0-10.176-10.276-18.425-22.952-18.425-12.68 0-22.952 8.25-22.952 18.425 0 4.892 2.389 9.321 6.257 12.621l-.015.003.114.081c.222.187.448.372.68.554 1.474 1.306 4.486 4.677 4.486 10.37 0 .003-.529 3.57 11.43 3.57 11.965 0 11.43-3.57 11.43-3.57l-.003-.003c.003-5.685 3.01-9.054 4.483-10.364.235-.184.462-.37.688-.56l.109-.078-.013-.003c3.869-3.3 6.258-7.729 6.258-12.62m-22.23 6.29c.815 1.244 2.053 3.489 2.304 5.948.046.468-.346.874-.854.874h-4.347c-.508 0-.9-.406-.85-.874.25-2.46 1.49-4.704 2.3-5.947.333-.506 1.117-.506 1.447 0m-15.038-6.292c0-4.149 2.569-7.515 5.734-7.515 3.167 0 5.735 3.366 5.735 7.515 0 4.151-2.568 7.516-5.735 7.516-3.165 0-5.734-3.365-5.734-7.516M42.19 46.124H29.535c-.622 0-1.125-.5-1.125-1.118 0-.617.503-1.115 1.125-1.115H42.19c.621 0 1.124.498 1.124 1.115a1.12 1.12 0 0 1-1.124 1.118m2.251-13.142c-3.162 0-5.734-3.365-5.734-7.516 0-4.149 2.572-7.515 5.734-7.515 3.17 0 5.737 3.366 5.737 7.515 0 4.151-2.567 7.516-5.737 7.516M33.965 60.714c.148-.318.272-.78.375-1.41.1-.626.152-1.25.152-1.86v-.107h-7.62v1.117h6.25a8.785 8.785 0 0 1-.505 2.127l-.052.136.738.035h-2.322v-1.794h-1.354v1.794h-3.99v1.135H35.68v-1.135h-1.728l.014-.038zM32.772 64.79c-.367.137-1.056.208-2.052.208-.992 0-1.686-.067-2.055-.203-.34-.126-.505-.31-.505-.56 0-.251.147-.429.452-.542.388-.145 1.098-.22 2.108-.22.99 0 1.69.075 2.085.22.315.113.467.291.467.542 0 .244-.162.425-.5.555m.902-1.994c-.6-.305-1.594-.46-2.954-.46-1.372 0-2.362.15-2.942.441-.601.308-.905.797-.905 1.458 0 .663.304 1.154.907 1.457.594.298 1.553.444 2.94.444 1.363 0 2.349-.15 2.929-.444.603-.301.91-.792.91-1.457 0-.663-.3-1.147-.885-1.44M39.99 61.337l-.145-2.515h2.363l-.09 2.515h-2.129zm1.866 2.78v-1.643h3.475v-1.137h-1.88l.125-2.515h1.139v-1.168h-7.378v1.168h1.148l.136 2.515h-1.9v1.137h3.792v1.644h-4.457v1.17h10.03v-1.17h-4.23z" fill="#FEFEFE"/>
    </g>
</svg>
