<svg width="72" height="72" viewBox="0 0 72 72" xmlns="http://www.w3.org/2000/svg">
    <g fill="none" fill-rule="evenodd">
        <path d="M63.637 71.723H8.086A8.085 8.085 0 0 1 0 63.638V8.088A8.088 8.088 0 0 1 8.086 0h55.551a8.089 8.089 0 0 1 8.088 8.087v55.551a8.086 8.086 0 0 1-8.088 8.085" fill="#000"/>
        <path d="M35.862 7.59c-13.712 0-24.83 7.804-24.83 17.427 0 8.016 7.705 14.762 18.198 16.8.67.129 1.164.687 1.16 1.358l-.001 1.354c-.339 2.783-3.07 6.069-5.316 7.462 0 0 10.592-.727 15.022-8.899.345-.628.995-1.028 1.712-1.15 10.842-1.867 18.885-8.736 18.885-16.925 0-9.623-11.118-17.426-24.83-17.426M23.973 27.223c-1.205 0-2.177-.954-2.177-2.135 0-1.179.972-2.133 2.177-2.133 1.202 0 2.177.954 2.177 2.133 0 1.18-.975 2.135-2.177 2.135m11.889 0c-1.203 0-2.178-.954-2.178-2.135 0-1.179.975-2.133 2.178-2.133 1.202 0 2.177.954 2.177 2.133 0 1.18-.975 2.135-2.177 2.135m11.888 0c-1.202 0-2.174-.954-2.174-2.135 0-1.179.972-2.133 2.174-2.133 1.205 0 2.177.954 2.177 2.133 0 1.18-.972 2.135-2.177 2.135M33.011 60.962h-.795v-3.528h-1.26v8.352h1.26v-3.613h.795v4.404H34.3v-9.568h-1.288z" fill="#FEFEFE"/>
        <path d="M30.635 62.608c-.63.174-1.274.32-1.907.436-.414.073-.87.141-1.355.202v-3.835h2.548v-1.187h-3.858v6.294h.113c.503 0 1.212-.083 2.11-.245.91-.163 1.746-.355 2.48-.574l.313-.113-.084-1.102-.36.124zM40.398 62.817a7.396 7.396 0 0 1-.958-1.903c-.277-.817-.419-1.727-.419-2.705 0-.006.004-.035.026-.14a.736.736 0 0 0 .03-.175c0-.104-.056-.185-.16-.23-.08-.035-.21-.054-.406-.054h-.787v.108c0 1.38-.216 2.658-.645 3.796a8.697 8.697 0 0 1-1.658 2.75l-.083.091 1.11.696.063-.066c.38-.394.757-.923 1.115-1.572a9.715 9.715 0 0 0 .736-1.669c.228.56.523 1.127.876 1.69.392.627.782 1.128 1.158 1.489l.067.062 1.127-.73-.079-.09c-.534-.607-.909-1.062-1.113-1.348M43.959 56.975h-1.354v9.566h1.354v-4.216h1.705v-1.198h-1.705z" fill="#FEFEFE"/>
    </g>
</svg>
