<svg width="72" height="72" viewBox="0 0 72 72" xmlns="http://www.w3.org/2000/svg" xmlns:xlink="http://www.w3.org/1999/xlink">
    <defs>
        <path id="tlngpxkjwa" d="M0 .274h71.727v71.16H0z"/>
    </defs>
    <g fill="none" fill-rule="evenodd">
        <g transform="translate(0 .293)">
            <mask id="eh9yppettb" fill="#fff">
                <use xlink:href="#tlngpxkjwa"/>
            </mask>
            <path d="M63.64 71.433H8.088C3.624 71.433 0 67.843 0 63.41V8.295C0 3.867 3.624.274 8.087.274H63.64c4.466 0 8.086 3.593 8.086 8.021V63.41c0 4.434-3.62 8.024-8.086 8.024" fill="#000" mask="url(#eh9yppettb)"/>
        </g>
        <path d="M48.13 28.469v-14.73l4.322 4.224c.016.014.034.016.048.03l3.197 3.124a1.725 1.725 0 0 0 2.406 0 1.634 1.634 0 0 0 0-2.348L46.925 7.844a.67.67 0 0 0-.468-.191l-.008.002-.008-.002-.008.002c-.006 0-.008-.002-.01-.002a.664.664 0 0 0-.468.191l-9.084 8.877c-1.197-5.153-5.914-9.015-11.543-9.015-6.534 0-11.847 5.194-11.847 11.582 0 5.82 4.418 10.636 10.147 11.448v7.466h-9.273c-.939 0-1.7.747-1.7 1.663 0 .914.761 1.661 1.7 1.661h9.273v8.31c0 .915.762 1.66 1.7 1.66s1.7-.745 1.7-1.66v-8.31h7.686c.804 5.625 5.745 9.97 11.72 9.97 6.53 0 11.844-5.195 11.844-11.582 0-5.82-4.419-10.639-10.147-11.445m6.73 11.445c0 4.544-3.78 8.24-8.428 8.24-4.65 0-8.43-3.696-8.43-8.24 0-4.54 3.78-8.24 8.43-8.24 4.649 0 8.428 3.7 8.428 8.24M25.328 11.046c4.648 0 8.428 3.699 8.428 8.242 0 4.542-3.78 8.24-8.428 8.24-4.649 0-8.43-3.698-8.43-8.24 0-4.543 3.781-8.242 8.43-8.242m11.653 10.266 7.752-7.573v14.73c-5.155.725-9.239 4.702-10.003 9.733h-7.702v-7.466c5.046-.715 9.067-4.54 9.953-9.424M29.158 64.411h1.354v-7.295h-1.354v2.618h-2.571v1.19h2.571zM24.514 63.07h-1.31v3.06h7.629v-1.191h-6.32z" fill="#FEFEFE"/>
        <path d="M24.34 60.881c.16.411.382.854.663 1.317.327.541.636.957.94 1.268l.066.066 1.15-.751-.095-.092a6.735 6.735 0 0 1-1.36-1.863c-.448-.886-.675-1.802-.675-2.724 0-.02.002-.064.026-.156.031-.136.031-.157.031-.17a.23.23 0 0 0-.149-.229c-.045-.017-.138-.042-.41-.042h-.785v.106c0 1.126-.238 2.165-.71 3.094a5.779 5.779 0 0 1-1.437 1.848l-.1.084 1.047.788.072-.062c.343-.296.688-.698 1.024-1.195.282-.41.515-.842.702-1.287M34.526 64.167c.361-.118 1.045-.178 2.035-.178.978 0 1.658.06 2.017.178.328.108.487.263.487.476 0 .213-.159.369-.487.473-.358.122-1.037.181-2.017.181-.976 0-1.655-.06-2.024-.181-.333-.104-.496-.26-.496-.473 0-.213.159-.368.485-.476m4.979-.902a2.41 2.41 0 0 0-.284-.112h1.186v-6.005h-1.354v2.367h-2.355v1.19h2.355V63.1c-.552-.154-1.31-.237-2.297-.245l.06-.066c.122-.14.246-.254.372-.342.15-.11.347-.213.603-.314l.203-.08-.188-.109c-.796-.459-1.394-.962-1.779-1.496a2.936 2.936 0 0 1-.567-1.623h2.09V57.66h-5.526v1.166h2.158c-.03.597-.309 1.188-.83 1.761a5.366 5.366 0 0 1-1.902 1.33l-.175.075.156.108c.211.144.376.27.49.375.11.101.222.228.343.384l.06.076.086-.047a6.62 6.62 0 0 0 1.51-1.148c.351-.352.634-.71.843-1.064.18.382.424.751.726 1.097.36.41.758.758 1.178 1.034l.072.049c-.058-.002-.118-.002-.178-.002-1.408 0-2.372.132-2.954.408-.602.281-.91.745-.91 1.382 0 .628.308 1.09.909 1.378.577.274 1.572.414 2.955.414 1.378 0 2.37-.139 2.95-.41.602-.284.91-.749.91-1.382 0-.63-.31-1.092-.916-1.378M44.248 64.169c.364-.12 1.075-.18 2.111-.18 1.016 0 1.717.06 2.086.18.336.106.5.261.5.474 0 .214-.162.368-.495.473-.366.122-1.07.181-2.09.181-1.02 0-1.727-.06-2.103-.181-.338-.105-.506-.26-.506-.473 0-.213.163-.368.497-.474m5.065-.904c-.592-.276-1.557-.412-2.954-.412-1.427 0-2.405.132-2.985.408-.604.282-.908.745-.908 1.382 0 .628.308 1.09.918 1.378.586.274 1.588.413 2.975.413 1.382 0 2.378-.138 2.96-.41.606-.283.913-.748.913-1.381 0-.629-.309-1.092-.92-1.378M44.033 60.577a6.372 6.372 0 0 0 1.696 2.136l.064.052 1.114-.719-.108-.091a8.279 8.279 0 0 1-.947-.91 4.987 4.987 0 0 1-.817-1.257 4.228 4.228 0 0 1-.346-1.698c0-.044.008-.099.021-.165.017-.083.025-.133.025-.148a.242.242 0 0 0-.16-.235c-.079-.031-.204-.046-.4-.046h-.783v.107c0 .73-.121 1.431-.361 2.082a6.318 6.318 0 0 1-.831 1.529c-.25.336-.57.693-.948 1.061l-.102.1 1.128.597.059-.056c.352-.336.67-.695.948-1.07.31-.415.561-.843.748-1.27" fill="#FEFEFE"/>
        <path fill="#FEFEFE" d="M48.82 63.087h1.355v-5.993h-1.354v2.151h-2.675v1.19h2.675z"/>
    </g>
</svg>
