<svg width="68" height="24" viewBox="0 0 68 24" xmlns="http://www.w3.org/2000/svg">
    <g fill-rule="nonzero" fill="none">
        <path d="M20.06 0H4.155C1.86 0 0 1.844 0 4.118v15.764C0 22.156 1.86 24 4.155 24H20.06c2.295 0 4.155-1.844 4.155-4.118V4.118C24.215 1.844 22.355 0 20.06 0z" fill="#0050FF"/>
        <path d="M18.39 18.045c-.252-3.7.786-7.372 2.94-10.403h-4.383a12.736 12.736 0 0 0-1.664 5.81 13.817 13.817 0 0 1-.743-7.142h-3.535a13.765 13.765 0 0 0-2.02 7.136 16.243 16.243 0 0 1-.6-8.473H4.083a18.815 18.815 0 0 0 3.501 14.059h4.34a13.88 13.88 0 0 1 .069-5.876 13.727 13.727 0 0 0 2.055 4.89l4.342-.001zM54.6 4.43v13.343h-1.795V4.43zM49.28 8.802c.746.727 1.118 1.776 1.118 3.146v5.824h-1.777v-5.4c0-2.115-1.056-2.982-2.699-2.982-.725 0-1.461.25-1.981.816-.547.596-.795 1.275-.795 2.475l-.025 5.092h-1.794V7.89h1.794v1.31c.793-1.013 2.073-1.472 3.174-1.472 1.202 0 2.24.346 2.985 1.073zM34.461 7.73c-2.93 0-4.994 2.057-4.994 5.102 0 3.045 2.064 5.102 4.994 5.102 2.93 0 4.995-2.057 4.995-5.102 0-3.045-2.064-5.103-4.995-5.103zm0 8.567c-1.905 0-3.125-1.421-3.125-3.465 0-2.044 1.219-3.466 3.125-3.466 1.907 0 3.126 1.422 3.126 3.466 0 2.044-1.22 3.465-3.126 3.465zM66.475 7.891l-5.95 14.533h-1.952l1.876-4.657-3.977-9.876h2.013l2.968 7.903 3.07-7.903z" fill="#FFF"/>
    </g>
</svg>
