<svg width="72" height="72" viewBox="0 0 72 72" xmlns="http://www.w3.org/2000/svg" xmlns:xlink="http://www.w3.org/1999/xlink">
    <defs>
        <path id="xo8q3zxm4a" d="M0 71.724h71.723V0H0z"/>
    </defs>
    <g fill="none" fill-rule="evenodd">
        <path d="M63.639 71.724H8.082A8.083 8.083 0 0 1 0 63.636V8.086A8.084 8.084 0 0 1 8.082 0H63.64a8.084 8.084 0 0 1 8.084 8.085v55.551a8.082 8.082 0 0 1-8.084 8.088" fill="#000"/>
        <path d="M53.432 34.322c2.474-3.08 3.956-6.885 3.956-11.02 0-10.227-8.949-18.517-19.987-18.517-9.414 0-17.285 6.033-19.407 14.149l-.02.007-3.305 13.349c-.172.687.384 1.346 1.144 1.366l3.348.078v6.687c-.002 1.494 1.294 2.705 2.906 2.732l3.868.042c.963.015 1.77.67 1.91 1.554v4.224s0 3.905 11.003 3.905c10.46 0 11.035-3.905 11.035-3.905s-.255-9.446 3.564-14.632l-.015-.019zM37.483 45.387c-1.325 0-2.397-.994-2.397-2.223 0-1.23 1.072-2.225 2.397-2.225 1.327 0 2.402.995 2.402 2.225 0 1.229-1.075 2.223-2.402 2.223zm10.375-19.31c-.732 1.34-1.89 2.545-3.436 3.584-1.488.997-4.95 3.679-4.95 6.96 0 1.02-.887 1.843-1.989 1.843-1.096 0-1.986-.822-1.986-1.843 0-4.799 4.132-8.287 6.593-9.942 1.03-.694 1.78-1.457 2.225-2.268a6.657 6.657 0 0 0 .79-3.872c-.32-3.274-3.216-6.016-6.74-6.374-2.214-.235-4.338.396-5.982 1.758-1.62 1.345-2.55 3.27-2.55 5.286 0 1.015-.888 1.839-1.987 1.839-1.098 0-1.988-.824-1.988-1.84 0-3.058 1.413-5.987 3.873-8.026 2.456-2.042 5.764-3.023 9.07-2.68 5.452.556 9.766 4.638 10.262 9.7a10.082 10.082 0 0 1-1.205 5.876zM27.215 60.98l.028.084.092-.01c.8-.093 1.575-.276 2.302-.543.742-.274 1.304-.593 1.679-.947.397.44.982.822 1.744 1.142.663.278 1.35.468 2.04.556l.093.012.028-.085c.102-.297.314-.613.626-.935l.157-.157-.226-.021a9.12 9.12 0 0 1-2.46-.574c-.705-.274-1.143-.57-1.285-.857H35v-1.176h-7.54v1.176h3.136c-.187.287-.64.558-1.353.805a7.666 7.666 0 0 1-2.528.447h-.23l.144.175c.317.383.514.69.587.909M26.204 62.817h4.434v3.66h1.33v-3.66h4.266v-1.143h-10.03zM40.803 61.753a8.105 8.105 0 0 1-.575-2.92h1.462v-1.2h-4.498v1.2h1.759a7.066 7.066 0 0 1-.743 3.011c-.419.854-.928 1.534-1.514 2.024l-.113.094.126.077c.206.124.36.234.473.34.033.026.117.117.262.264l.177.18.081-.073c.41-.372.794-.843 1.14-1.396.281-.458.511-.924.688-1.398.148.462.338.928.566 1.382.256.502.54.96.846 1.362l.077.103.092-.09c.143-.137.298-.26.457-.37.158-.105.33-.192.511-.262l.144-.055-.1-.115a7.109 7.109 0 0 1-1.318-2.158" fill="#FEFEFE"/>
        <path fill="#FEFEFE" d="M42.369 60.37h-1.285v1.2h1.285v4.107h1.252v-8.331h-1.252z"/>
        <mask id="6vcg54wtqb" fill="#fff">
            <use xlink:href="#xo8q3zxm4a"/>
        </mask>
        <path fill="#FEFEFE" mask="url(#6vcg54wtqb)" d="M44.21 66.541h1.31v-9.566h-1.31z"/>
    </g>
</svg>
