<svg width="72" height="72" viewBox="0 0 72 72" xmlns="http://www.w3.org/2000/svg">
    <g fill="none" fill-rule="evenodd">
        <path d="M63.637 71.723H8.086A8.085 8.085 0 0 1 0 63.636V8.087A8.089 8.089 0 0 1 8.086 0h55.551a8.087 8.087 0 0 1 8.086 8.087v55.549a8.083 8.083 0 0 1-8.086 8.087" fill="#000"/>
        <path d="M44.903 43.715v-15.35c0-.52.362-.958.862-1.042a1.032 1.032 0 0 1 1.207 1.017v15.262l.144.26c.55.358 1.617.785 3.606.785 3.673 0 4.783-2.822 4.893-4.706l-.002-12.96c-.073-1.033-.376-3.063-1.633-4.36-.774-.797-1.818-1.197-3.097-1.197l-.047-.002c-.023.002-2.577-.152-3.828 1.588-.132.183-.333.267-.575.275a.675.675 0 0 1-.54-.34c-.074-.128-1.792-3.113-5.372-3.113-3.562 0-5.012 3.234-5.028 3.265a.644.644 0 0 1-.544.393.675.675 0 0 1-.61-.285c-.034-.05-1.023-1.373-3.783-1.056-2.827.34-4.199 3.045-4.213 3.072a.662.662 0 0 1-.386.333.642.642 0 0 1-.508-.036s-.622-.275-2.092-.275c-1.432 0-4.172 1.453-4.172 3.738v11.282c.008.14.248 4.17 4.066 4.17.072.004 1.452.11 2.687-.599l.161-.268V31.493c0-.512.368-.96.862-1.04.293-.054.6.033.833.228.237.2.371.486.371.793v12.158l.083.214c.642.632 1.798 1.384 3.663 1.384 1.591 0 2.548-.515 3.07-.952l.095-.224V29.426c0-.521.362-.957.858-1.041l.175-.015a1.04 1.04 0 0 1 1.035 1.035v14.427l.1.229c.565.536 1.65 1.17 3.612 1.17 1.967 0 3.232-.7 3.946-1.287l.1-.229z" fill="#FEFEFE"/>
        <path d="M60.769 38.351c-.281-.9-1.814-4.115-3.144-6.834v8.108c0 .158-.01.313-.021.47.047 1.98-.918 5.647-5.001 6.45-3.513.692-5.613-.264-6.488-.826-.716.51-2.3 1.38-4.968 1.565.305 1.033 1.334 2.922 4.808 2.922h7.69c1.05 0 3.609-.972 5.768-4.65 2.107-3.59 1.782-5.83 1.356-7.205M23.357 23.252c.748 0 1.338.06 1.793.138.814-1.128 2.492-2.894 5.172-3.213 1.847-.222 3.26.158 4.233.692.995-1.307 2.888-3.026 5.966-3.026.945 0 1.785.168 2.535.42l2.595-3.46-8.255.99.991-8.254-6.655 4.984-3.27-7.644-3.269 7.644-6.654-4.984.99 8.255-8.256-.991 4.988 6.653-7.648 3.268 7.648 3.272-4.988 6.652 5.927-.709v-4.961c0-3.44 3.706-5.726 6.157-5.726" fill="#FEFEFE"/>
        <path d="m25.155 26.112-.006-.002.006.002z" fill="#000"/>
        <path fill="#FEFEFE" d="M22.718 64.417h6.06v2.115h1.343v-3.238h-7.403zM25.26 60.01l-.157-1.352h2.59l-.067 1.352H25.26zm1.91 1.707v-.563h3.063V60.01h-1.31l.057-1.352h1.343v-1.146h-7.8v1.146h1.293l.147 1.352H22.66v1.144h3.177v.563h-4.4v1.143h10.03v-1.143H27.17zM37.49 62.764l.103-.018-.113-1.147-.121.021c-.566.102-1.244.183-2.013.247a26.91 26.91 0 0 1-1.844.091V60.64h3.394v-3.082h-4.704v1.2h3.394v.715h-3.405v3.72h.111c.6 0 1.5-.054 2.668-.155 1.14-.097 2.015-.192 2.53-.273M33.017 64.626h6.24v2.115h1.353v-3.325h-7.593z"/>
        <path fill="#FEFEFE" d="M39.257 58.279h-2.131v1.187h2.13v.85h-2.13v1.2h2.13V63.2h1.354v-6.17h-1.353zM44.3 64.107c.363-.12 1.073-.182 2.11-.182 1.017 0 1.717.061 2.087.182.335.109.5.263.5.478 0 .215-.162.37-.498.476-.366.123-1.068.183-2.09.183-1.018 0-1.725-.06-2.102-.183-.338-.105-.506-.262-.506-.476 0-.215.163-.371.498-.478m5.064-.911c-.59-.279-1.556-.416-2.954-.416-1.426 0-2.404.134-2.984.411-.604.284-.91.752-.91 1.394 0 .632.309 1.099.92 1.388.586.277 1.586.417 2.974.417 1.381 0 2.376-.14 2.962-.413.606-.286.914-.754.914-1.392 0-.634-.31-1.101-.922-1.39"/>
        <path fill="#FEFEFE" d="M48.87 63.016h1.358v-6.04h-1.359v2.168h-2.674v1.2h2.674zM44.083 60.486c.198.419.464.834.79 1.24.293.356.598.663.904.913l.068.054 1.114-.726-.108-.092c-.4-.34-.717-.648-.949-.918a4.935 4.935 0 0 1-.816-1.266 4.272 4.272 0 0 1-.346-1.712c0-.044.008-.1.02-.166a.924.924 0 0 0 .025-.15.244.244 0 0 0-.161-.236c-.077-.031-.203-.046-.396-.046h-.785v.108c0 .735-.122 1.441-.36 2.097a6.412 6.412 0 0 1-.832 1.542c-.252.34-.572.701-.948 1.07l-.1.1 1.123.603.062-.058c.35-.337.668-.697.949-1.077.31-.42.56-.85.746-1.28"/>
    </g>
</svg>
